# xmcd
#
# Track frame offsets: 
#        150
#        18175
#        32170
#        59392
#        73807
#        90840
#        109682
#        126962
#        160207
#        176820
#
# Disc length: 2671 seconds
#
# Revision: 0
# Processed by: cddbd v1.4PL0 Copyright (c) Steve Scherf et al.
# Submitted via: ExactAudioCopy v0.95a4
#
DISCID=7f0a6d0a
DTITLE=Robert Pete Williams - It's A Long Old Road
DYEAR=1998
DGENRE=Blues
TTITLE0=Somebody Help Poor Me
TTITLE1=Freight Train Blues
TTITLE2=It's Hard To Tell
TTITLE3=I'm Going Down Slow
TTITLE4=Motherless Children Have A Hard Time
TTITLE5=Ugly
TTITLE6=So Long Boogie
TTITLE7=This Is A Mean Old World To Me
TTITLE8=High As I Want To Be
TTITLE9=It's A Long Old Road
EXTD=
EXTT0=
EXTT1=
EXTT2=
EXTT3=
EXTT4=
EXTT5=
EXTT6=
EXTT7=
EXTT8=
EXTT9=
PLAYORDER=
